<svg width="32" height="32" viewBox="0 0 32 32" fill="none" xmlns="http://www.w3.org/2000/svg">
<path d="M15.9864 14.616C14.5339 11.8019 10.594 6.54569 6.92652 3.95846C3.41333 1.48016 2.06979 1.90683 1.1983 2.30626C0.18156 2.76924 0 4.33066 0 5.24754C0 6.16442 0.499291 12.7823 0.835177 13.8807C1.92454 17.5301 5.78269 18.7647 9.34128 18.3653C9.52284 18.338 9.7044 18.3108 9.89504 18.2926C9.71348 18.3199 9.52284 18.3471 9.34128 18.3653C4.1305 19.1369 -0.508368 21.0342 5.5739 27.7973C12.2553 34.7148 14.7336 26.3176 16.0045 22.0509C17.2755 26.3085 18.737 34.4061 26.3081 27.7973C32 22.0509 27.8695 19.1369 22.6587 18.3653C22.4772 18.3471 22.2865 18.3199 22.105 18.2926C22.2956 18.3199 22.4772 18.338 22.6587 18.3653C26.2173 18.7647 30.0845 17.5301 31.1648 13.8807C31.4916 12.7732 32 6.16442 32 5.24754C32 4.33066 31.8184 2.76924 30.8017 2.30626C29.9211 1.90683 28.5867 1.48016 25.0735 3.95846C21.3787 6.55477 17.4389 11.8019 15.9864 14.616Z" fill="white"/>
</svg>
