<svg width="32" height="32" viewBox="0 0 32 32" fill="none" xmlns="http://www.w3.org/2000/svg">
<g clip-path="url(#clip0_6_80)">
<path d="M16.1433 32C12.9079 32 11.4202 31.6013 8.94872 30.2706C6.80735 29.1178 4.96118 27.5747 3.97295 25.36C0.432006 17.4268 1.50773 5.56172 9.07493 1.61855C12.9174 -0.383398 19.0126 -0.60339 22.9164 1.38125C26.661 3.28501 28.4729 6.25505 29.9716 10.0657L26.9125 10.9397C25.4997 5.8072 22.0956 2.96368 16.5704 2.96368C14.3868 2.96368 12.4053 3.18304 10.7401 4.00856C6.75699 5.98219 5.12484 10.6121 4.96433 15.3018C4.84757 18.7096 5.39833 22.1495 6.91908 24.6245C8.65855 27.4551 12.2731 29.2453 15.6614 29.2453C18.8351 29.2453 21.3888 28.6935 23.3583 26.8461C26.0404 24.3299 26.5993 20.3175 23.1805 17.8712C22.1274 26.8587 9.9401 26.346 9.9401 19.2024C9.9401 17.7192 10.517 16.4247 11.6704 15.3194C13.9613 13.1242 17.4082 13.7728 20.2828 13.7294C19.9798 12.3726 18.8263 10.4069 16.6122 10.4069C14.9061 10.4069 13.436 10.8358 12.6458 12.1571L10.2643 10.6121C11.273 8.71807 13.3067 7.47429 16.4269 7.47429C19.547 7.47429 22.6014 9.5159 23.1078 13.3876L23.2642 14.5833C25.0279 15.2948 26.2975 16.6223 27.179 17.9599C29.6575 21.7209 28.291 26.5452 24.7516 29.5446C22.8205 31.1811 19.9505 31.9997 16.1436 31.9997L16.1433 32ZM12.7836 19.142C12.7836 20.6137 14.345 21.7142 15.8566 21.7142C17.5429 21.7142 18.7023 21.2387 19.3346 20.2876C19.9669 19.3365 20.2832 18.1909 20.2832 16.8515C18.5509 16.4112 15.5371 16.0955 13.9399 17.1527C13.1877 17.6505 12.7839 18.2847 12.7839 19.142H12.7836Z" fill="white"/>
</g>
<defs>
<clipPath id="clip0_6_80">
<rect width="32" height="32" fill="white" transform="translate(0.000976562)"/>
</clipPath>
</defs>
</svg>
